<svg xmlns="http://www.w3.org/2000/svg" xmlns:xlink="http://www.w3.org/1999/xlink" >

  <!--Sunny-->
  <symbol id="sunny" viewBox="0 0 24 24" 
   fill="currentColor"
   stroke="white"
    
   >
    <path stroke="white" d="M0 0h24v24H0z" fill="none"/>
    <path d="M12 19a1 1 0 0 1 .993 .883l.007 .117v1a1 1 0 0 1 -1.993 .117l-.007 -.117v-1a1 1 0 0 1 1 -1z" />
    <path d="M18.313 16.91l.094 .083l.7 .7a1 1 0 0 1 -1.32 1.497l-.094 -.083l-.7 -.7a1 1 0 0 1 1.218 -1.567l.102 .07z" />
    <path d="M7.007 16.993a1 1 0 0 1 .083 1.32l-.083 .094l-.7 .7a1 1 0 0 1 -1.497 -1.32l.083 -.094l.7 -.7a1 1 0 0 1 1.414 0z" />
    <path d="M4 11a1 1 0 0 1 .117 1.993l-.117 .007h-1a1 1 0 0 1 -.117 -1.993l.117 -.007h1z" />
    <path d="M21 11a1 1 0 0 1 .117 1.993l-.117 .007h-1a1 1 0 0 1 -.117 -1.993l.117 -.007h1z" />
    <path d="M6.213 4.81l.094 .083l.7 .7a1 1 0 0 1 -1.32 1.497l-.094 -.083l-.7 -.7a1 1 0 0 1 1.217 -1.567l.102 .07z" />
    <path d="M19.107 4.893a1 1 0 0 1 .083 1.32l-.083 .094l-.7 .7a1 1 0 0 1 -1.497 -1.32l.083 -.094l.7 -.7a1 1 0 0 1 1.414 0z" />
    <path d="M12 2a1 1 0 0 1 .993 .883l.007 .117v1a1 1 0 0 1 -1.993 .117l-.007 -.117v-1a1 1 0 0 1 1 -1z" />
    <path d="M12 7a5 5 0 1 1 -4.995 5.217l-.005 -.217l.005 -.217a5 5 0 0 1 4.995 -4.783z" />
  </symbol>

  <!-- Rainy Cloud-->
  <symbol id="rainy" viewBox="0 0 24 24"  
    fill="none"  
    stroke="currentColor"  
    stroke-width="2"  
    stroke-linecap="round"  
    stroke-linejoin="round" 
    >
      <path stroke="none" d="M0 0h24v24H0z" fill="none"/>
      <path d="M7 18a4.6 4.4 0 0 1 0 -9a5 4.5 0 0 1 11 2h1a3.5 3.5 0 0 1 0 7" />
      <path d="M11 13v2m0 3v2m4 -5v2m0 3v2" />
  </symbol>

  <!--Cloudy-->
  <symbol id="cloudy"  viewBox="0 0 24 24"  
    fill="none"  
    stroke="white"  
    stroke-width="2"  
    stroke-linecap="round"  
    stroke-linejoin="round"  
    >
    <path stroke="none" d="M0 0h24v24H0z" fill="none"/>
    <path d="M13 18.004h-6.343c-2.572 -.004 -4.657 -2.011 -4.657 -4.487c0 -2.475 2.085 -4.482 4.657 -4.482c.393 -1.762 1.794 -3.2 3.675 -3.773c1.88 -.572 3.956 -.193 5.444 1c1.488 1.19 2.162 3.007 1.77 4.769h.99c1.396 0 2.6 .831 3.148 2.03" />
    <path d="M19 16l-2 3h4l-2 3" />
  </symbol>

  <!--Wind-->
  <symbol id="windy" viewBox="0 0 24 24"  fill="none"  stroke="currentColor"  
  stroke-width="2"  stroke-linecap="round"  stroke-linejoin="round" >
    <path stroke="none" d="M0 0h24v24H0z" fill="none"/>
    <path d="M5 8h8.5a2.5 2.5 0 1 0 -2.34 -3.24" />
    <path d="M3 12h15.5a2.5 2.5 0 1 1 -2.34 3.24" />
    <path d="M4 16h5.5a2.5 2.5 0 1 1 -2.34 3.24" />
  </symbol >

</svg>